<svg width="157" height="33" viewBox="0 0 157 33" fill="none" xmlns="http://www.w3.org/2000/svg">
<g clip-path="url(#clip0_403_956)">
<path d="M24.5 12.75L22.0062 26.9325C21.9045 27.5117 21.6019 28.0365 21.1515 28.4146C20.7011 28.7928 20.1318 29 19.5437 29H9.45625C8.86818 29 8.29891 28.7928 7.84853 28.4146C7.39815 28.0365 7.09549 27.5117 6.99375 26.9325L4.5 12.75M25.75 9H18.7188M18.7188 9V6.5C18.7188 5.83696 18.4554 5.20107 17.9865 4.73223C17.5177 4.26339 16.8818 4 16.2188 4H12.7812C12.1182 4 11.4823 4.26339 11.0135 4.73223C10.5446 5.20107 10.2812 5.83696 10.2812 6.5V9M18.7188 9H10.2812M3.25 9H10.2812" stroke="#0B251C" stroke-width="1.5" stroke-linecap="round" stroke-linejoin="round"/>
</g>
<path d="M54.7083 9.508H48.3523V26H44.5163V9.508H38.1603V6.12H54.7083V9.508ZM64.1537 14.576C63.0151 14.576 61.9977 14.8 61.1017 15.248C60.2057 15.6773 59.5617 16.3027 59.1697 17.124V26H55.4177V11.328H58.8617V14.464C59.3844 13.456 60.0471 12.6627 60.8497 12.084C61.6524 11.5053 62.5017 11.188 63.3977 11.132C63.6031 11.132 63.7617 11.132 63.8737 11.132C63.9857 11.132 64.0791 11.1413 64.1537 11.16V14.576ZM65.1558 21.66C65.1558 20.708 65.4171 19.8773 65.9398 19.168C66.4811 18.44 67.2278 17.88 68.1798 17.488C69.1318 17.096 70.2238 16.9 71.4558 16.9C72.0718 16.9 72.6971 16.9467 73.3318 17.04C73.9665 17.1333 74.5171 17.2827 74.9838 17.488V16.704C74.9838 15.7707 74.7038 15.052 74.1438 14.548C73.6025 14.044 72.7905 13.792 71.7078 13.792C70.9051 13.792 70.1398 13.932 69.4118 14.212C68.6838 14.492 67.9185 14.9027 67.1158 15.444L65.9118 12.98C66.8825 12.3453 67.8718 11.8693 68.8798 11.552C69.9065 11.2347 70.9798 11.076 72.0998 11.076C74.1905 11.076 75.8145 11.5987 76.9718 12.644C78.1478 13.6893 78.7358 15.1827 78.7358 17.124V21.8C78.7358 22.192 78.8011 22.472 78.9318 22.64C79.0811 22.808 79.3145 22.9107 79.6318 22.948V26C79.2958 26.056 78.9878 26.1027 78.7078 26.14C78.4465 26.1773 78.2225 26.196 78.0358 26.196C77.2891 26.196 76.7198 26.028 76.3278 25.692C75.9545 25.356 75.7211 24.9453 75.6278 24.46L75.5438 23.704C74.9091 24.5253 74.1158 25.16 73.1638 25.608C72.2118 26.056 71.2411 26.28 70.2518 26.28C69.2811 26.28 68.4038 26.084 67.6198 25.692C66.8545 25.2813 66.2478 24.7307 65.7998 24.04C65.3705 23.3307 65.1558 22.5373 65.1558 21.66ZM74.2838 22.416C74.4891 22.192 74.6571 21.968 74.7878 21.744C74.9185 21.52 74.9838 21.3147 74.9838 21.128V19.644C74.5358 19.4573 74.0505 19.3173 73.5278 19.224C73.0051 19.112 72.5105 19.056 72.0438 19.056C71.0731 19.056 70.2705 19.2707 69.6358 19.7C69.0198 20.1107 68.7118 20.6613 68.7118 21.352C68.7118 21.7253 68.8145 22.08 69.0198 22.416C69.2251 22.752 69.5238 23.0227 69.9158 23.228C70.3078 23.4333 70.7745 23.536 71.3158 23.536C71.8758 23.536 72.4265 23.4333 72.9678 23.228C73.5091 23.004 73.9478 22.7333 74.2838 22.416ZM87.6459 26.28C86.3953 26.28 85.2006 26.0747 84.0619 25.664C82.9233 25.2533 81.9433 24.6467 81.1219 23.844L82.4659 21.408C83.3433 22.1173 84.2019 22.64 85.0419 22.976C85.9006 23.312 86.7219 23.48 87.5059 23.48C88.2339 23.48 88.8126 23.3493 89.2419 23.088C89.6899 22.8267 89.9139 22.4347 89.9139 21.912C89.9139 21.5573 89.7926 21.2867 89.5499 21.1C89.3073 20.8947 88.9526 20.7173 88.4859 20.568C88.0379 20.4187 87.4873 20.2507 86.8339 20.064C85.7513 19.7093 84.8459 19.364 84.1179 19.028C83.3899 18.692 82.8393 18.272 82.4659 17.768C82.1113 17.2453 81.9339 16.5827 81.9339 15.78C81.9339 14.8093 82.1766 13.9787 82.6619 13.288C83.1659 12.5787 83.8566 12.028 84.7339 11.636C85.6299 11.244 86.6753 11.048 87.8699 11.048C88.9153 11.048 89.9046 11.216 90.8379 11.552C91.7713 11.8693 92.6206 12.392 93.3859 13.12L91.8739 15.5C91.1273 14.9213 90.4179 14.5013 89.7459 14.24C89.0739 13.96 88.3926 13.82 87.7019 13.82C87.3099 13.82 86.9366 13.8667 86.5819 13.96C86.2459 14.0533 85.9659 14.212 85.7419 14.436C85.5366 14.6413 85.4339 14.94 85.4339 15.332C85.4339 15.6867 85.5273 15.9667 85.7139 16.172C85.9193 16.3587 86.2179 16.5267 86.6099 16.676C87.0206 16.8253 87.5153 16.9933 88.0939 17.18C89.2699 17.516 90.2593 17.8613 91.0619 18.216C91.8833 18.5707 92.4993 19.0093 92.9099 19.532C93.3206 20.036 93.5259 20.736 93.5259 21.632C93.5259 23.088 92.9939 24.2267 91.9299 25.048C90.8659 25.8693 89.4379 26.28 87.6459 26.28ZM109.714 26H105.962V17.768C105.962 16.6293 105.738 15.78 105.29 15.22C104.861 14.66 104.263 14.38 103.498 14.38C103.05 14.38 102.574 14.5107 102.07 14.772C101.566 15.0333 101.109 15.3973 100.698 15.864C100.306 16.312 100.017 16.8347 99.8299 17.432V26H96.0779V5.56H99.8299V14.044C100.371 13.1107 101.109 12.3827 102.042 11.86C102.975 11.3373 103.993 11.076 105.094 11.076C106.046 11.076 106.821 11.244 107.418 11.58C108.015 11.8973 108.482 12.336 108.818 12.896C109.154 13.4373 109.387 14.0533 109.518 14.744C109.649 15.416 109.714 16.116 109.714 16.844V26ZM112.836 20.512V11.328H116.588V19.7C116.588 20.82 116.794 21.6693 117.204 22.248C117.615 22.808 118.222 23.088 119.024 23.088C119.51 23.088 119.986 22.9947 120.452 22.808C120.938 22.6027 121.376 22.304 121.768 21.912C122.179 21.52 122.524 21.0253 122.804 20.428V11.328H126.556V21.8C126.556 22.192 126.622 22.472 126.752 22.64C126.902 22.808 127.135 22.9107 127.452 22.948V26C127.079 26.056 126.762 26.0933 126.5 26.112C126.258 26.1493 126.034 26.168 125.828 26.168C125.156 26.168 124.606 26.0187 124.176 25.72C123.766 25.4027 123.523 24.9733 123.448 24.432L123.364 23.256C122.711 24.2453 121.871 25.0013 120.844 25.524C119.818 26.028 118.688 26.28 117.456 26.28C115.944 26.28 114.796 25.7947 114.012 24.824C113.228 23.8347 112.836 22.3973 112.836 20.512ZM139.021 14.576C137.882 14.576 136.865 14.8 135.969 15.248C135.073 15.6773 134.429 16.3027 134.037 17.124V26H130.285V11.328H133.729V14.464C134.252 13.456 134.914 12.6627 135.717 12.084C136.52 11.5053 137.369 11.188 138.265 11.132C138.47 11.132 138.629 11.132 138.741 11.132C138.853 11.132 138.946 11.1413 139.021 11.16V14.576ZM147.726 26.28C146.55 26.28 145.486 26.084 144.534 25.692C143.582 25.2813 142.77 24.7307 142.098 24.04C141.426 23.3307 140.903 22.528 140.53 21.632C140.175 20.7173 139.998 19.756 139.998 18.748C139.998 17.348 140.306 16.0693 140.922 14.912C141.556 13.7547 142.452 12.8307 143.61 12.14C144.786 11.4307 146.167 11.076 147.754 11.076C149.359 11.076 150.731 11.4307 151.87 12.14C153.008 12.8307 153.876 13.7547 154.474 14.912C155.09 16.0507 155.398 17.2827 155.398 18.608C155.398 18.832 155.388 19.0653 155.37 19.308C155.351 19.532 155.332 19.7187 155.314 19.868H143.974C144.048 20.6147 144.263 21.268 144.618 21.828C144.991 22.388 145.458 22.8173 146.018 23.116C146.596 23.396 147.212 23.536 147.866 23.536C148.612 23.536 149.312 23.3587 149.966 23.004C150.638 22.6307 151.095 22.1453 151.338 21.548L154.558 22.444C154.203 23.1907 153.69 23.8533 153.018 24.432C152.364 25.0107 151.59 25.468 150.694 25.804C149.798 26.1213 148.808 26.28 147.726 26.28ZM143.89 17.488H151.562C151.487 16.7413 151.272 16.0973 150.918 15.556C150.582 14.996 150.134 14.5667 149.574 14.268C149.014 13.9507 148.388 13.792 147.698 13.792C147.026 13.792 146.41 13.9507 145.85 14.268C145.308 14.5667 144.86 14.996 144.506 15.556C144.17 16.0973 143.964 16.7413 143.89 17.488Z" fill="#0B251C"/>
<defs>
<clipPath id="clip0_403_956">
<rect width="29.2683" height="30" fill="white" transform="translate(0.5 1.5)"/>
</clipPath>
</defs>
</svg>
