<svg width="157" height="34" viewBox="0 0 157 34" fill="none" xmlns="http://www.w3.org/2000/svg">
<g clip-path="url(#clip0_268_406)">
<path d="M24 13.25L21.5062 27.4325C21.4045 28.0117 21.1019 28.5365 20.6515 28.9146C20.2011 29.2928 19.6318 29.5 19.0437 29.5H8.95625C8.36818 29.5 7.79891 29.2928 7.34853 28.9146C6.89815 28.5365 6.59549 28.0117 6.49375 27.4325L4 13.25M25.25 9.5H18.2188M18.2188 9.5V7C18.2188 6.33696 17.9554 5.70107 17.4865 5.23223C17.0177 4.76339 16.3818 4.5 15.7188 4.5H12.2812C11.6182 4.5 10.9823 4.76339 10.5135 5.23223C10.0446 5.70107 9.78125 6.33696 9.78125 7V9.5M18.2188 9.5H9.78125M2.75 9.5H9.78125" stroke="white" stroke-width="1.5" stroke-linecap="round" stroke-linejoin="round"/>
</g>
<path d="M54.2083 10.008H47.8523V26.5H44.0163V10.008H37.6603V6.62H54.2083V10.008ZM63.6537 15.076C62.5151 15.076 61.4977 15.3 60.6017 15.748C59.7057 16.1773 59.0617 16.8027 58.6697 17.624V26.5H54.9177V11.828H58.3617V14.964C58.8844 13.956 59.5471 13.1627 60.3497 12.584C61.1524 12.0053 62.0017 11.688 62.8977 11.632C63.1031 11.632 63.2617 11.632 63.3737 11.632C63.4857 11.632 63.5791 11.6413 63.6537 11.66V15.076ZM64.6558 22.16C64.6558 21.208 64.9171 20.3773 65.4398 19.668C65.9811 18.94 66.7278 18.38 67.6798 17.988C68.6318 17.596 69.7238 17.4 70.9558 17.4C71.5718 17.4 72.1971 17.4467 72.8318 17.54C73.4665 17.6333 74.0171 17.7827 74.4838 17.988V17.204C74.4838 16.2707 74.2038 15.552 73.6438 15.048C73.1025 14.544 72.2905 14.292 71.2078 14.292C70.4051 14.292 69.6398 14.432 68.9118 14.712C68.1838 14.992 67.4185 15.4027 66.6158 15.944L65.4118 13.48C66.3825 12.8453 67.3718 12.3693 68.3798 12.052C69.4065 11.7347 70.4798 11.576 71.5998 11.576C73.6905 11.576 75.3145 12.0987 76.4718 13.144C77.6478 14.1893 78.2358 15.6827 78.2358 17.624V22.3C78.2358 22.692 78.3011 22.972 78.4318 23.14C78.5811 23.308 78.8145 23.4107 79.1318 23.448V26.5C78.7958 26.556 78.4878 26.6027 78.2078 26.64C77.9465 26.6773 77.7225 26.696 77.5358 26.696C76.7891 26.696 76.2198 26.528 75.8278 26.192C75.4545 25.856 75.2211 25.4453 75.1278 24.96L75.0438 24.204C74.4091 25.0253 73.6158 25.66 72.6638 26.108C71.7118 26.556 70.7411 26.78 69.7518 26.78C68.7811 26.78 67.9038 26.584 67.1198 26.192C66.3545 25.7813 65.7478 25.2307 65.2998 24.54C64.8705 23.8307 64.6558 23.0373 64.6558 22.16ZM73.7838 22.916C73.9891 22.692 74.1571 22.468 74.2878 22.244C74.4185 22.02 74.4838 21.8147 74.4838 21.628V20.144C74.0358 19.9573 73.5505 19.8173 73.0278 19.724C72.5051 19.612 72.0105 19.556 71.5438 19.556C70.5731 19.556 69.7705 19.7707 69.1358 20.2C68.5198 20.6107 68.2118 21.1613 68.2118 21.852C68.2118 22.2253 68.3145 22.58 68.5198 22.916C68.7251 23.252 69.0238 23.5227 69.4158 23.728C69.8078 23.9333 70.2745 24.036 70.8158 24.036C71.3758 24.036 71.9265 23.9333 72.4678 23.728C73.0091 23.504 73.4478 23.2333 73.7838 22.916ZM87.1459 26.78C85.8953 26.78 84.7006 26.5747 83.5619 26.164C82.4233 25.7533 81.4433 25.1467 80.6219 24.344L81.9659 21.908C82.8433 22.6173 83.7019 23.14 84.5419 23.476C85.4006 23.812 86.2219 23.98 87.0059 23.98C87.7339 23.98 88.3126 23.8493 88.7419 23.588C89.1899 23.3267 89.4139 22.9347 89.4139 22.412C89.4139 22.0573 89.2926 21.7867 89.0499 21.6C88.8073 21.3947 88.4526 21.2173 87.9859 21.068C87.5379 20.9187 86.9873 20.7507 86.3339 20.564C85.2513 20.2093 84.3459 19.864 83.6179 19.528C82.8899 19.192 82.3393 18.772 81.9659 18.268C81.6113 17.7453 81.4339 17.0827 81.4339 16.28C81.4339 15.3093 81.6766 14.4787 82.1619 13.788C82.6659 13.0787 83.3566 12.528 84.2339 12.136C85.1299 11.744 86.1753 11.548 87.3699 11.548C88.4153 11.548 89.4046 11.716 90.3379 12.052C91.2713 12.3693 92.1206 12.892 92.8859 13.62L91.3739 16C90.6273 15.4213 89.9179 15.0013 89.2459 14.74C88.5739 14.46 87.8926 14.32 87.2019 14.32C86.8099 14.32 86.4366 14.3667 86.0819 14.46C85.7459 14.5533 85.4659 14.712 85.2419 14.936C85.0366 15.1413 84.9339 15.44 84.9339 15.832C84.9339 16.1867 85.0273 16.4667 85.2139 16.672C85.4193 16.8587 85.7179 17.0267 86.1099 17.176C86.5206 17.3253 87.0153 17.4933 87.5939 17.68C88.7699 18.016 89.7593 18.3613 90.5619 18.716C91.3833 19.0707 91.9993 19.5093 92.4099 20.032C92.8206 20.536 93.0259 21.236 93.0259 22.132C93.0259 23.588 92.4939 24.7267 91.4299 25.548C90.3659 26.3693 88.9379 26.78 87.1459 26.78ZM109.214 26.5H105.462V18.268C105.462 17.1293 105.238 16.28 104.79 15.72C104.361 15.16 103.763 14.88 102.998 14.88C102.55 14.88 102.074 15.0107 101.57 15.272C101.066 15.5333 100.609 15.8973 100.198 16.364C99.8059 16.812 99.5165 17.3347 99.3299 17.932V26.5H95.5779V6.06H99.3299V14.544C99.8712 13.6107 100.609 12.8827 101.542 12.36C102.475 11.8373 103.493 11.576 104.594 11.576C105.546 11.576 106.321 11.744 106.918 12.08C107.515 12.3973 107.982 12.836 108.318 13.396C108.654 13.9373 108.887 14.5533 109.018 15.244C109.149 15.916 109.214 16.616 109.214 17.344V26.5ZM112.336 21.012V11.828H116.088V20.2C116.088 21.32 116.294 22.1693 116.704 22.748C117.115 23.308 117.722 23.588 118.524 23.588C119.01 23.588 119.486 23.4947 119.952 23.308C120.438 23.1027 120.876 22.804 121.268 22.412C121.679 22.02 122.024 21.5253 122.304 20.928V11.828H126.056V22.3C126.056 22.692 126.122 22.972 126.252 23.14C126.402 23.308 126.635 23.4107 126.952 23.448V26.5C126.579 26.556 126.262 26.5933 126 26.612C125.758 26.6493 125.534 26.668 125.328 26.668C124.656 26.668 124.106 26.5187 123.676 26.22C123.266 25.9027 123.023 25.4733 122.948 24.932L122.864 23.756C122.211 24.7453 121.371 25.5013 120.344 26.024C119.318 26.528 118.188 26.78 116.956 26.78C115.444 26.78 114.296 26.2947 113.512 25.324C112.728 24.3347 112.336 22.8973 112.336 21.012ZM138.521 15.076C137.382 15.076 136.365 15.3 135.469 15.748C134.573 16.1773 133.929 16.8027 133.537 17.624V26.5H129.785V11.828H133.229V14.964C133.752 13.956 134.414 13.1627 135.217 12.584C136.02 12.0053 136.869 11.688 137.765 11.632C137.97 11.632 138.129 11.632 138.241 11.632C138.353 11.632 138.446 11.6413 138.521 11.66V15.076ZM147.226 26.78C146.05 26.78 144.986 26.584 144.034 26.192C143.082 25.7813 142.27 25.2307 141.598 24.54C140.926 23.8307 140.403 23.028 140.03 22.132C139.675 21.2173 139.498 20.256 139.498 19.248C139.498 17.848 139.806 16.5693 140.422 15.412C141.056 14.2547 141.952 13.3307 143.11 12.64C144.286 11.9307 145.667 11.576 147.254 11.576C148.859 11.576 150.231 11.9307 151.37 12.64C152.508 13.3307 153.376 14.2547 153.974 15.412C154.59 16.5507 154.898 17.7827 154.898 19.108C154.898 19.332 154.888 19.5653 154.87 19.808C154.851 20.032 154.832 20.2187 154.814 20.368H143.474C143.548 21.1147 143.763 21.768 144.118 22.328C144.491 22.888 144.958 23.3173 145.518 23.616C146.096 23.896 146.712 24.036 147.366 24.036C148.112 24.036 148.812 23.8587 149.466 23.504C150.138 23.1307 150.595 22.6453 150.838 22.048L154.058 22.944C153.703 23.6907 153.19 24.3533 152.518 24.932C151.864 25.5107 151.09 25.968 150.194 26.304C149.298 26.6213 148.308 26.78 147.226 26.78ZM143.39 17.988H151.062C150.987 17.2413 150.772 16.5973 150.418 16.056C150.082 15.496 149.634 15.0667 149.074 14.768C148.514 14.4507 147.888 14.292 147.198 14.292C146.526 14.292 145.91 14.4507 145.35 14.768C144.808 15.0667 144.36 15.496 144.006 16.056C143.67 16.5973 143.464 17.2413 143.39 17.988Z" fill="white"/>
<defs>
<clipPath id="clip0_268_406">
<rect width="29.2683" height="30" fill="white" transform="translate(0 2)"/>
</clipPath>
</defs>
</svg>
