<svg width="30" height="30" viewBox="0 0 30 30" fill="none" xmlns="http://www.w3.org/2000/svg">
<g clip-path="url(#clip0_268_407)">
<path d="M24 11.25L21.5062 25.4325C21.4045 26.0117 21.1019 26.5365 20.6515 26.9146C20.2011 27.2928 19.6318 27.5 19.0437 27.5H8.95625C8.36818 27.5 7.79891 27.2928 7.34853 26.9146C6.89815 26.5365 6.59549 26.0117 6.49375 25.4325L4 11.25M25.25 7.5H18.2188M18.2188 7.5V5C18.2188 4.33696 17.9554 3.70107 17.4865 3.23223C17.0177 2.76339 16.3818 2.5 15.7188 2.5H12.2812C11.6182 2.5 10.9823 2.76339 10.5135 3.23223C10.0446 3.70107 9.78125 4.33696 9.78125 5V7.5M18.2188 7.5H9.78125M2.75 7.5H9.78125" stroke="white" stroke-width="1.5" stroke-linecap="round" stroke-linejoin="round"/>
</g>
<defs>
<clipPath id="clip0_268_407">
<rect width="29.2683" height="30" fill="white"/>
</clipPath>
</defs>
</svg>
